<svg width="364" height="38" viewBox="0 0 364 38" fill="none" xmlns="http://www.w3.org/2000/svg">
<path d="M11.9 37L0.65 1.55H9.5L17.6 28.85H13.75L21.75 1.55H28.9L36.9 28.85H33.1L41.2 1.55H50L38.7 37H31.5L23.5 9.75H27.1L19.15 37H11.9ZM62.5074 37.55C59.7741 37.55 57.3574 37.0167 55.2574 35.95C53.1574 34.85 51.5074 33.3333 50.3074 31.4C49.1074 29.4667 48.5074 27.25 48.5074 24.75C48.5074 22.2833 49.0908 20.1 50.2574 18.2C51.4241 16.2667 53.0074 14.75 55.0074 13.65C57.0408 12.5167 59.3241 11.95 61.8574 11.95C64.3241 11.95 66.5074 12.4833 68.4074 13.55C70.3408 14.5833 71.8408 16.0333 72.9074 17.9C74.0074 19.7333 74.5574 21.8333 74.5574 24.2C74.5574 24.7 74.5241 25.2167 74.4574 25.75C74.4241 26.25 74.3241 26.8333 74.1574 27.5L52.6074 27.6V22L70.7074 21.85L66.8074 24.3C66.7741 22.9333 66.5741 21.8167 66.2074 20.95C65.8408 20.05 65.3074 19.3667 64.6074 18.9C63.9074 18.4333 63.0241 18.2 61.9574 18.2C60.8574 18.2 59.9074 18.4667 59.1074 19C58.3074 19.5333 57.6908 20.2833 57.2574 21.25C56.8241 22.2167 56.6074 23.3833 56.6074 24.75C56.6074 26.15 56.8408 27.35 57.3074 28.35C57.7741 29.3167 58.4408 30.05 59.3074 30.55C60.1741 31.05 61.2408 31.3 62.5074 31.3C63.7074 31.3 64.7574 31.1 65.6574 30.7C66.5908 30.3 67.4241 29.6833 68.1574 28.85L72.7074 33.4C71.5074 34.7667 70.0408 35.8 68.3074 36.5C66.6074 37.2 64.6741 37.55 62.5074 37.55ZM92.393 37.5C90.8263 37.5 89.3763 37.2 88.043 36.6C86.7096 35.9667 85.6096 35.1167 84.743 34.05C83.8763 32.9833 83.343 31.8167 83.143 30.55V18.6C83.343 17.3333 83.8763 16.2 84.743 15.2C85.643 14.2 86.7596 13.4333 88.093 12.9C89.4263 12.3333 90.8596 12.05 92.393 12.05C94.7596 12.05 96.843 12.6 98.643 13.7C100.443 14.7667 101.843 16.2667 102.843 18.2C103.876 20.1333 104.393 22.3333 104.393 24.8C104.393 27.2333 103.876 29.4167 102.843 31.35C101.843 33.25 100.443 34.75 98.643 35.85C96.843 36.95 94.7596 37.5 92.393 37.5ZM90.843 29.75C91.7763 29.75 92.593 29.5333 93.293 29.1C94.0263 28.6667 94.593 28.0833 94.993 27.35C95.393 26.5833 95.593 25.7167 95.593 24.75C95.593 23.8167 95.393 22.9833 94.993 22.25C94.593 21.4833 94.0263 20.8833 93.293 20.45C92.5596 20.0167 91.7263 19.8 90.793 19.8C89.8596 19.8 89.0263 20.0167 88.293 20.45C87.593 20.8833 87.043 21.4667 86.643 22.2C86.243 22.9333 86.043 23.7833 86.043 24.75C86.043 25.75 86.243 26.6333 86.643 27.4C87.043 28.1333 87.6096 28.7167 88.343 29.15C89.0763 29.55 89.9096 29.75 90.843 29.75ZM77.843 37V0.549998H86.543V18.55L85.093 24.45L86.343 30.45V37H77.843ZM118.22 37.55C115.72 37.55 113.42 37.1333 111.32 36.3C109.22 35.4333 107.437 34.2167 105.97 32.65L111.67 27.05C112.27 27.9167 113.153 28.6333 114.32 29.2C115.52 29.7333 116.77 30 118.07 30C119.17 30 120.137 29.8167 120.97 29.45C121.837 29.05 122.503 28.5 122.97 27.8C123.47 27.0667 123.72 26.2 123.72 25.2C123.72 24.2 123.47 23.35 122.97 22.65C122.47 21.9167 121.753 21.3667 120.82 21C119.92 20.6333 118.837 20.45 117.57 20.45C116.903 20.45 116.203 20.5 115.47 20.6C114.77 20.6667 114.203 20.7833 113.77 20.95L117.67 16.05C118.737 15.7833 119.703 15.5667 120.57 15.4C121.47 15.2 122.27 15.1 122.97 15.1C124.77 15.1 126.387 15.5333 127.82 16.4C129.253 17.2333 130.387 18.4333 131.22 20C132.053 21.5333 132.47 23.35 132.47 25.45C132.47 27.85 131.887 29.9667 130.72 31.8C129.553 33.6 127.887 35.0167 125.72 36.05C123.587 37.05 121.087 37.55 118.22 37.55ZM113.77 20.95V16.05L122.02 6.4H131.72L123.22 16.05L113.77 20.95ZM108.42 9V1.55H131.72V6.4L124.97 9H108.42ZM163.465 37.55C160.765 37.55 158.265 37.1 155.965 36.2C153.665 35.2667 151.649 33.9833 149.915 32.35C148.215 30.6833 146.882 28.7333 145.915 26.5C144.982 24.2667 144.515 21.85 144.515 19.25C144.515 16.6167 144.982 14.2 145.915 12C146.882 9.76667 148.215 7.83333 149.915 6.2C151.649 4.56667 153.649 3.28333 155.915 2.35C158.215 1.41667 160.699 0.949999 163.365 0.949999C166.165 0.949999 168.682 1.4 170.915 2.3C173.149 3.16667 175.115 4.38333 176.815 5.95L170.815 11.95C169.982 11.0167 168.949 10.2833 167.715 9.75C166.482 9.21666 165.032 8.95 163.365 8.95C161.932 8.95 160.615 9.18333 159.415 9.65C158.249 10.1167 157.232 10.8167 156.365 11.75C155.499 12.65 154.815 13.7333 154.315 15C153.849 16.2667 153.615 17.6833 153.615 19.25C153.615 20.8167 153.849 22.2333 154.315 23.5C154.815 24.7667 155.499 25.8667 156.365 26.8C157.232 27.7 158.249 28.4 159.415 28.9C160.615 29.3667 161.932 29.6 163.365 29.6C165.032 29.6 166.499 29.35 167.765 28.85C169.032 28.3167 170.115 27.5667 171.015 26.6L177.015 32.6C175.282 34.1667 173.315 35.3833 171.115 36.25C168.949 37.1167 166.399 37.55 163.465 37.55ZM196.134 37V23.2C196.134 22.0667 195.801 21.1833 195.134 20.55C194.468 19.8833 193.618 19.55 192.584 19.55C191.884 19.55 191.251 19.7 190.684 20C190.151 20.3 189.734 20.7167 189.434 21.25C189.134 21.7833 188.984 22.4333 188.984 23.2L185.584 21.6C185.584 19.6333 185.984 17.95 186.784 16.55C187.618 15.1167 188.751 14.0167 190.184 13.25C191.618 12.45 193.284 12.05 195.184 12.05C197.151 12.05 198.851 12.45 200.284 13.25C201.751 14.0167 202.868 15.0833 203.634 16.45C204.434 17.8167 204.834 19.4 204.834 21.2V37H196.134ZM180.284 37V0.549998H188.984V37H180.284ZM221.785 37.55C219.051 37.55 216.635 37.0167 214.535 35.95C212.435 34.85 210.785 33.3333 209.585 31.4C208.385 29.4667 207.785 27.25 207.785 24.75C207.785 22.2833 208.368 20.1 209.535 18.2C210.701 16.2667 212.285 14.75 214.285 13.65C216.318 12.5167 218.601 11.95 221.135 11.95C223.601 11.95 225.785 12.4833 227.685 13.55C229.618 14.5833 231.118 16.0333 232.185 17.9C233.285 19.7333 233.835 21.8333 233.835 24.2C233.835 24.7 233.801 25.2167 233.735 25.75C233.701 26.25 233.601 26.8333 233.435 27.5L211.885 27.6V22L229.985 21.85L226.085 24.3C226.051 22.9333 225.851 21.8167 225.485 20.95C225.118 20.05 224.585 19.3667 223.885 18.9C223.185 18.4333 222.301 18.2 221.235 18.2C220.135 18.2 219.185 18.4667 218.385 19C217.585 19.5333 216.968 20.2833 216.535 21.25C216.101 22.2167 215.885 23.3833 215.885 24.75C215.885 26.15 216.118 27.35 216.585 28.35C217.051 29.3167 217.718 30.05 218.585 30.55C219.451 31.05 220.518 31.3 221.785 31.3C222.985 31.3 224.035 31.1 224.935 30.7C225.868 30.3 226.701 29.6833 227.435 28.85L231.985 33.4C230.785 34.7667 229.318 35.8 227.585 36.5C225.885 37.2 223.951 37.55 221.785 37.55ZM249.22 37.55C246.62 37.55 244.27 37 242.17 35.9C240.104 34.8 238.47 33.2833 237.27 31.35C236.07 29.4167 235.47 27.2333 235.47 24.8C235.47 22.3333 236.07 20.1333 237.27 18.2C238.504 16.2667 240.154 14.75 242.22 13.65C244.32 12.5167 246.687 11.95 249.32 11.95C251.22 11.95 252.954 12.2667 254.52 12.9C256.087 13.5333 257.52 14.4833 258.82 15.75L253.32 21.25C252.82 20.75 252.237 20.3833 251.57 20.15C250.937 19.8833 250.187 19.75 249.32 19.75C248.387 19.75 247.537 19.9667 246.77 20.4C246.037 20.8 245.437 21.3667 244.97 22.1C244.537 22.8333 244.32 23.7167 244.32 24.75C244.32 25.75 244.537 26.6333 244.97 27.4C245.437 28.1333 246.037 28.7167 246.77 29.15C247.537 29.5833 248.387 29.8 249.32 29.8C250.254 29.8 251.054 29.65 251.72 29.35C252.387 29.05 252.97 28.6167 253.47 28.05L259.02 33.55C257.654 34.8833 256.17 35.8833 254.57 36.55C253.004 37.2167 251.22 37.55 249.22 37.55ZM277.869 37L270.169 24.2L277.819 12.55H287.369L277.869 25.7L278.119 22.5L287.869 37H277.869ZM262.169 37V0.549998H270.869V37H262.169ZM301.416 37.55C298.783 37.55 296.433 37 294.366 35.9C292.333 34.7667 290.716 33.2333 289.516 31.3C288.316 29.3333 287.716 27.1333 287.716 24.7C287.716 22.2667 288.3 20.1 289.466 18.2C290.666 16.2667 292.3 14.75 294.366 13.65C296.433 12.5167 298.766 11.95 301.366 11.95C303.966 11.95 306.283 12.5167 308.316 13.65C310.383 14.75 312.016 16.2667 313.216 18.2C314.416 20.1 315.016 22.2667 315.016 24.7C315.016 27.1333 314.416 29.3333 313.216 31.3C312.05 33.2333 310.433 34.7667 308.366 35.9C306.333 37 304.016 37.55 301.416 37.55ZM301.366 29.8C302.333 29.8 303.166 29.6 303.866 29.2C304.6 28.7667 305.166 28.1667 305.566 27.4C305.966 26.6333 306.166 25.75 306.166 24.75C306.166 23.75 305.95 22.8833 305.516 22.15C305.116 21.3833 304.566 20.8 303.866 20.4C303.166 19.9667 302.333 19.75 301.366 19.75C300.433 19.75 299.6 19.9667 298.866 20.4C298.133 20.8333 297.566 21.4333 297.166 22.2C296.766 22.9333 296.566 23.8 296.566 24.8C296.566 25.7667 296.766 26.6333 297.166 27.4C297.566 28.1667 298.133 28.7667 298.866 29.2C299.6 29.6 300.433 29.8 301.366 29.8ZM329.668 37.55C327.368 37.55 325.318 37.1 323.518 36.2C321.751 35.2667 320.351 33.9833 319.318 32.35C318.318 30.6833 317.818 28.8 317.818 26.7V12.55H326.518V26.7C326.518 27.3667 326.651 27.95 326.918 28.45C327.185 28.95 327.551 29.3333 328.018 29.6C328.485 29.8667 329.035 30 329.668 30C330.601 30 331.351 29.7 331.918 29.1C332.518 28.5 332.818 27.7 332.818 26.7V12.55H341.518V26.7C341.518 28.8333 341.018 30.7167 340.018 32.35C339.018 33.9833 337.618 35.2667 335.818 36.2C334.051 37.1 332.001 37.55 329.668 37.55ZM349.308 37V2.45H358.008V37H349.308ZM343.908 19.8V12.55H363.408V19.8H343.908Z" fill="#119455"/>
</svg>
