<svg width="320" height="37" viewBox="0 0 320 37" fill="none" xmlns="http://www.w3.org/2000/svg">
<path d="M10.05 36L0.4 12H6.1L12.6 29.45L10.9 29.5L17.25 12H20.45L26.8 29.5L25.1 29.45L31.6 12H37.3L27.65 36H24.45L17.95 19.4H19.75L13.25 36H10.05ZM51.3094 36.5C48.9094 36.5 46.7427 35.9667 44.8094 34.9C42.9094 33.8 41.3927 32.3 40.2594 30.4C39.1594 28.5 38.6094 26.3667 38.6094 24C38.6094 21.6333 39.1594 19.5167 40.2594 17.65C41.3594 15.75 42.8427 14.25 44.7094 13.15C46.6094 12.05 48.7094 11.5 51.0094 11.5C53.2427 11.5 55.2094 12.0167 56.9094 13.05C58.6427 14.0833 59.9927 15.5 60.9594 17.3C61.9594 19.1 62.4594 21.15 62.4594 23.45C62.4594 23.85 62.426 24.2667 62.3594 24.7C62.326 25.1 62.2594 25.55 62.1594 26.05H42.4594V21.55H59.3094L57.2594 23.35C57.1927 21.8833 56.9094 20.65 56.4094 19.65C55.9094 18.65 55.1927 17.8833 54.2594 17.35C53.3594 16.8167 52.2427 16.55 50.9094 16.55C49.5094 16.55 48.2927 16.85 47.2594 17.45C46.226 18.05 45.426 18.9 44.8594 20C44.2927 21.0667 44.0094 22.35 44.0094 23.85C44.0094 25.35 44.3094 26.6667 44.9094 27.8C45.5094 28.9333 46.3594 29.8167 47.4594 30.45C48.5594 31.05 49.826 31.35 51.2594 31.35C52.4927 31.35 53.626 31.1333 54.6594 30.7C55.726 30.2667 56.626 29.6333 57.3594 28.8L60.8594 32.35C59.6927 33.7167 58.276 34.75 56.6094 35.45C54.9427 36.15 53.176 36.5 51.3094 36.5ZM79.7184 36.5C77.885 36.5 76.2517 36.1167 74.8184 35.35C73.385 34.55 72.2517 33.4667 71.4184 32.1C70.6184 30.7333 70.2184 29.1833 70.2184 27.45V20.55C70.2184 18.8167 70.635 17.2667 71.4684 15.9C72.3017 14.5333 73.435 13.4667 74.8684 12.7C76.3017 11.9 77.9184 11.5 79.7184 11.5C81.885 11.5 83.835 12.0667 85.5684 13.2C87.335 14.3 88.7184 15.8 89.7184 17.7C90.7517 19.5667 91.2684 21.6833 91.2684 24.05C91.2684 26.3833 90.7517 28.5 89.7184 30.4C88.7184 32.2667 87.335 33.75 85.5684 34.85C83.835 35.95 81.885 36.5 79.7184 36.5ZM78.8184 31.3C80.1517 31.3 81.3184 31 82.3184 30.4C83.3517 29.7667 84.1517 28.9 84.7184 27.8C85.3184 26.7 85.6184 25.4333 85.6184 24C85.6184 22.5667 85.3184 21.3 84.7184 20.2C84.1517 19.1 83.3517 18.25 82.3184 17.65C81.3184 17.0167 80.1517 16.7 78.8184 16.7C77.485 16.7 76.3017 17.0167 75.2684 17.65C74.235 18.25 73.435 19.1 72.8684 20.2C72.3017 21.3 72.0184 22.5667 72.0184 24C72.0184 25.4333 72.3017 26.7 72.8684 27.8C73.435 28.9 74.235 29.7667 75.2684 30.4C76.3017 31 77.485 31.3 78.8184 31.3ZM66.8684 36V-1.43051e-06H72.3684V17.9L71.4184 23.7L72.3684 29.55V36H66.8684ZM105.122 36.5C102.789 36.5 100.672 36.0833 98.7723 35.25C96.9056 34.3833 95.3223 33.1333 94.0223 31.5L97.9223 27.6C98.6223 28.6667 99.6056 29.5167 100.872 30.15C102.139 30.7833 103.522 31.1 105.022 31.1C106.456 31.1 107.689 30.8333 108.722 30.3C109.756 29.7667 110.556 29.0167 111.122 28.05C111.722 27.0833 112.022 25.9667 112.022 24.7C112.022 23.3667 111.722 22.2333 111.122 21.3C110.556 20.3667 109.722 19.65 108.622 19.15C107.556 18.6167 106.256 18.35 104.722 18.35C104.122 18.35 103.506 18.4 102.872 18.5C102.239 18.5667 101.672 18.6833 101.172 18.85L103.722 15.55C104.422 15.2833 105.156 15.0667 105.922 14.9C106.722 14.7 107.489 14.6 108.222 14.6C110.022 14.6 111.639 15.0333 113.072 15.9C114.539 16.7667 115.689 17.9833 116.522 19.55C117.389 21.0833 117.822 22.9 117.822 25C117.822 27.2667 117.289 29.2667 116.222 31C115.156 32.7333 113.672 34.0833 111.772 35.05C109.872 36.0167 107.656 36.5 105.122 36.5ZM101.172 18.85V15.45L110.522 4.55L117.422 4.4L107.672 15.6L101.172 18.85ZM95.7723 6.15V0.999998H117.422V4.4L112.472 6.15H95.7723ZM133.924 36.5C131.558 36.5 129.408 35.95 127.474 34.85C125.574 33.75 124.074 32.25 122.974 30.35C121.874 28.45 121.324 26.3333 121.324 24C121.324 21.6333 121.874 19.5167 122.974 17.65C124.074 15.75 125.574 14.25 127.474 13.15C129.408 12.05 131.558 11.5 133.924 11.5C135.791 11.5 137.524 11.8667 139.124 12.6C140.758 13.3 142.141 14.3167 143.274 15.65L139.674 19.3C138.974 18.4667 138.124 17.85 137.124 17.45C136.158 17.0167 135.091 16.8 133.924 16.8C132.558 16.8 131.341 17.1167 130.274 17.75C129.241 18.35 128.424 19.1833 127.824 20.25C127.258 21.3167 126.974 22.5667 126.974 24C126.974 25.4 127.258 26.65 127.824 27.75C128.424 28.8167 129.241 29.6667 130.274 30.3C131.341 30.9 132.558 31.2 133.924 31.2C135.091 31.2 136.158 31 137.124 30.6C138.124 30.1667 138.974 29.5333 139.674 28.7L143.274 32.35C142.141 33.6833 140.758 34.7167 139.124 35.45C137.524 36.15 135.791 36.5 133.924 36.5ZM163.689 36V22.15C163.689 20.55 163.173 19.2333 162.139 18.2C161.139 17.1667 159.839 16.65 158.239 16.65C157.173 16.65 156.223 16.8833 155.389 17.35C154.556 17.8167 153.906 18.4667 153.439 19.3C152.973 20.1333 152.739 21.0833 152.739 22.15L150.589 20.95C150.589 19.1167 150.989 17.5 151.789 16.1C152.589 14.6667 153.689 13.55 155.089 12.75C156.523 11.9167 158.123 11.5 159.889 11.5C161.689 11.5 163.289 11.9 164.689 12.7C166.089 13.5 167.189 14.6167 167.989 16.05C168.789 17.45 169.189 19.0833 169.189 20.95V36H163.689ZM147.239 36V-1.43051e-06H152.739V36H147.239ZM185.929 36.5C183.529 36.5 181.362 35.9667 179.429 34.9C177.529 33.8 176.012 32.3 174.879 30.4C173.779 28.5 173.229 26.3667 173.229 24C173.229 21.6333 173.779 19.5167 174.879 17.65C175.979 15.75 177.462 14.25 179.329 13.15C181.229 12.05 183.329 11.5 185.629 11.5C187.862 11.5 189.829 12.0167 191.529 13.05C193.262 14.0833 194.612 15.5 195.579 17.3C196.579 19.1 197.079 21.15 197.079 23.45C197.079 23.85 197.045 24.2667 196.979 24.7C196.945 25.1 196.879 25.55 196.779 26.05H177.079V21.55H193.929L191.879 23.35C191.812 21.8833 191.529 20.65 191.029 19.65C190.529 18.65 189.812 17.8833 188.879 17.35C187.979 16.8167 186.862 16.55 185.529 16.55C184.129 16.55 182.912 16.85 181.879 17.45C180.845 18.05 180.045 18.9 179.479 20C178.912 21.0667 178.629 22.35 178.629 23.85C178.629 25.35 178.929 26.6667 179.529 27.8C180.129 28.9333 180.979 29.8167 182.079 30.45C183.179 31.05 184.445 31.35 185.879 31.35C187.112 31.35 188.245 31.1333 189.279 30.7C190.345 30.2667 191.245 29.6333 191.979 28.8L195.479 32.35C194.312 33.7167 192.895 34.75 191.229 35.45C189.562 36.15 187.795 36.5 185.929 36.5ZM212.538 36.5C210.171 36.5 208.021 35.95 206.088 34.85C204.188 33.75 202.688 32.25 201.588 30.35C200.488 28.45 199.938 26.3333 199.938 24C199.938 21.6333 200.488 19.5167 201.588 17.65C202.688 15.75 204.188 14.25 206.088 13.15C208.021 12.05 210.171 11.5 212.538 11.5C214.404 11.5 216.138 11.8667 217.738 12.6C219.371 13.3 220.754 14.3167 221.888 15.65L218.288 19.3C217.588 18.4667 216.738 17.85 215.738 17.45C214.771 17.0167 213.704 16.8 212.538 16.8C211.171 16.8 209.954 17.1167 208.888 17.75C207.854 18.35 207.038 19.1833 206.438 20.25C205.871 21.3167 205.588 22.5667 205.588 24C205.588 25.4 205.871 26.65 206.438 27.75C207.038 28.8167 207.854 29.6667 208.888 30.3C209.954 30.9 211.171 31.2 212.538 31.2C213.704 31.2 214.771 31 215.738 30.6C216.738 30.1667 217.588 29.5333 218.288 28.7L221.888 32.35C220.754 33.6833 219.371 34.7167 217.738 35.45C216.138 36.15 214.404 36.5 212.538 36.5ZM241.103 36L230.953 23.75L241.053 12H247.603L236.003 25.2L236.253 22.05L248.103 36H241.103ZM225.853 36V-1.43051e-06H231.353V36H225.853ZM261.169 36.5C258.836 36.5 256.719 35.95 254.819 34.85C252.919 33.7167 251.402 32.2 250.269 30.3C249.169 28.4 248.619 26.2833 248.619 23.95C248.619 21.6167 249.169 19.5167 250.269 17.65C251.402 15.7833 252.919 14.3 254.819 13.2C256.719 12.0667 258.836 11.5 261.169 11.5C263.536 11.5 265.669 12.05 267.569 13.15C269.469 14.25 270.969 15.75 272.069 17.65C273.202 19.5167 273.769 21.6167 273.769 23.95C273.769 26.2833 273.202 28.4 272.069 30.3C270.969 32.2 269.469 33.7167 267.569 34.85C265.669 35.95 263.536 36.5 261.169 36.5ZM261.169 31.2C262.536 31.2 263.736 30.9 264.769 30.3C265.836 29.6667 266.652 28.8 267.219 27.7C267.819 26.6 268.119 25.35 268.119 23.95C268.119 22.55 267.819 21.3167 267.219 20.25C266.619 19.1833 265.802 18.35 264.769 17.75C263.736 17.1167 262.536 16.8 261.169 16.8C259.836 16.8 258.636 17.1167 257.569 17.75C256.536 18.35 255.719 19.1833 255.119 20.25C254.552 21.3167 254.269 22.55 254.269 23.95C254.269 25.35 254.552 26.6 255.119 27.7C255.719 28.8 256.536 29.6667 257.569 30.3C258.636 30.9 259.836 31.2 261.169 31.2ZM288.193 36.5C286.16 36.5 284.343 36.05 282.743 35.15C281.176 34.25 279.943 33.0167 279.043 31.45C278.176 29.85 277.743 28.0167 277.743 25.95V12H283.243V25.7C283.243 26.8667 283.426 27.8667 283.793 28.7C284.193 29.5 284.76 30.1167 285.493 30.55C286.26 30.9833 287.16 31.2 288.193 31.2C289.793 31.2 291.01 30.7333 291.843 29.8C292.71 28.8333 293.143 27.4667 293.143 25.7V12H298.643V25.95C298.643 28.05 298.193 29.9 297.293 31.5C296.426 33.0667 295.21 34.3 293.643 35.2C292.076 36.0667 290.26 36.5 288.193 36.5ZM307.823 36V2H313.323V36H307.823ZM302.073 17V12H319.073V17H302.073Z" fill="#11BA69"/>
</svg>
